<svg xmlns="http://www.w3.org/2000/svg" xml:space="preserve" id="chat" x="0" y="0" enable-background="new 0 0 512 512" version="1.1" viewBox="0 0 512 512">
  <path d="M115.448,215.93c-1.219,3.019-0.488,6.475,1.85,8.74c2.337,2.266,5.815,2.89,8.794,1.577l38.814-17.105
	c14.359,9.281,30.819,15.253,47.889,17.343c4.539,0.556,9.046,0.83,13.51,0.845c16.449,8.711,34.725,13.208,53.165,13.208
	c7.519,0,15.064-0.746,22.521-2.254c16.855-3.41,32.802-10.644,46.396-21.013l40.026,14.037c3.072,1.076,6.49,0.186,8.645-2.255
	c2.154-2.441,2.615-5.943,1.165-8.858l-19.179-38.547c12.97-23.552,17.166-50.826,11.808-77.305
	c-10.719-52.977-57.19-90.945-110.948-91.127c-12.125-6.427-25.45-10.643-39.479-12.36c-30.134-3.691-59.901,4.575-83.819,23.274
	c-23.917,18.699-39.122,45.592-42.811,75.727c-3.284,26.815,3.02,53.682,17.78,76.154L115.448,215.93z M375.169,107.514
	c4.856,24.002,0.577,48.766-12.051,69.729c-1.411,2.342-1.528,5.243-0.31,7.692l12.318,24.757l-25.613-8.982
	c-2.651-0.93-5.595-0.401-7.757,1.394c-12.311,10.217-27.159,17.305-42.938,20.498c-13.074,2.645-26.459,2.546-39.329-0.141
	c41.745-12.683,74.301-48.959,79.936-94.977c3.69-30.134-4.576-59.901-23.274-83.818c-2.926-3.742-6.052-7.271-9.36-10.576
	C340.853,43.014,367.813,71.166,375.169,107.514z M129.674,101.799c3.17-25.892,16.234-49,36.785-65.066
	c20.55-16.067,46.127-23.168,72.02-19.998c25.892,3.17,49,16.234,65.066,36.785c16.066,20.55,23.169,46.127,19.999,72.02
	c-6.055,49.44-48.263,85.799-96.863,85.795c-20.046-0.001-39.962-6.26-56.343-17.829c-2.154-1.521-5.345-1.886-7.842-0.786
	l-24.838,10.946l10.357-25.64c1.024-2.536,0.683-5.418-0.906-7.644C132.889,150.463,126.698,126.107,129.674,101.799z
	 M216.496,113.669c0-5.523,4.477-10,10-10c5.523,0,10,4.477,10,10c0,5.523-4.477,10-10,10
	C220.973,123.669,216.496,119.192,216.496,113.669z M262.263,113.669c0-5.523,4.477-10,10-10c5.523,0,10,4.477,10,10
	c0,5.523-4.477,10-10,10C266.741,123.669,262.263,119.192,262.263,113.669z M170.954,113.669c0-5.523,4.477-10,10-10
	c5.523,0,10,4.477,10,10c0,5.523-4.477,10-10,10C175.431,123.669,170.954,119.192,170.954,113.669z M156.051,388.854
	c17.648-11.608,29.33-31.577,29.33-54.234c0-35.774-29.105-64.879-64.88-64.879s-64.88,29.105-64.88,64.879
	c0,22.656,11.682,42.626,29.33,54.234C35.805,404.058,0,449.925,0,504c0,4.418,3.582,8,8,8h225c4.418,0,8-3.582,8-8
	C241,449.926,205.196,404.059,156.051,388.854z M71.621,334.62c0-26.952,21.927-48.879,48.88-48.879s48.88,21.927,48.88,48.879
	c0,26.948-21.921,48.873-48.867,48.88c-0.005,0-0.009,0-0.013,0c-0.004,0-0.008,0-0.012,0
	C93.541,383.493,71.621,361.568,71.621,334.62z M16.303,496c4.098-53.895,49.259-96.493,104.184-96.5c0.004,0,0.009,0,0.013,0
	c0.004,0,0.008,0,0.013,0c54.925,0.007,100.085,42.605,104.183,96.5H16.303z M427.05,388.854
	c17.648-11.608,29.331-31.577,29.331-54.234c0-35.774-29.105-64.879-64.88-64.879c-35.774,0-64.879,29.105-64.879,64.879
	c0,22.656,11.682,42.626,29.33,54.234C306.805,404.058,271,449.925,271,504c0,4.418,3.582,8,8,8h225c4.418,0,8-3.582,8-8
	C512,449.926,476.196,404.059,427.05,388.854z M342.621,334.62c0-26.952,21.927-48.879,48.879-48.879
	c26.953,0,48.88,21.927,48.88,48.879c0,26.948-21.921,48.873-48.868,48.88c-0.004,0-0.009,0-0.013,0c-0.004,0-0.008,0-0.013,0
	C364.541,383.493,342.621,361.568,342.621,334.62z M287.303,496c4.098-53.895,49.259-96.493,104.184-96.5c0.004,0,0.009,0,0.013,0
	c0.004,0,0.009,0,0.013,0c54.925,0.007,100.086,42.605,104.183,96.5H287.303z"></path>
</svg>
